PathFileType	4	(X/Y/Z)	/Users/niels/Desktop/University/Third Semester/Perception and Action/Exam/Gymnastics Motion Tracking/Code for Gym Tracking/Analyzed Data/Webcam_Backflip/id2000_1_baseline_Sports2D/id2000_1_baseline_Sports2D_px_person00.trc
DataRate	CameraRate	NumFrames	NumMarkers	Units	OrigDataRate	OrigDataStartFrame	OrigNumFrames
29.88372093023256	29.88372093023256	7	22	m	29.88372093023256	193	258
Frame#	Time	Hip			RHip			RKnee			RAnkle			RBigToe			RSmallToe			RHeel			LHip			LKnee			LAnkle			LBigToe			LSmallToe			LHeel			Neck			Head			Nose			RShoulder			RElbow			RWrist			LShoulder			LElbow			LWrist		
		X1	Y1	Z1	X2	Y2	Z2	X3	Y3	Z3	X4	Y4	Z4	X5	Y5	Z5	X6	Y6	Z6	X7	Y7	Z7	X8	Y8	Z8	X9	Y9	Z9	X10	Y10	Z10	X11	Y11	Z11	X12	Y12	Z12	X13	Y13	Z13	X14	Y14	Z14	X15	Y15	Z15	X16	Y16	Z16	X17	Y17	Z17	X18	Y18	Z18	X19	Y19	Z19	X20	Y20	Z20	X21	Y21	Z21	X22	Y22	Z22
193	6.458365758754864	1.035095410316624	-0.5781793429699054	0.0	1.0059446804485146	-0.5816631272311703	0.0	1.1978565191156858	-0.9231815283857602	0.0	1.0849612962254191	-1.0869304858187807	0.0	1.1767501265379676	-1.1149956002229995	0.0	1.1568809099643844	-1.1316620857290323	0.0	1.0172525473535756	-1.0863474920106426	0.0	1.0682474267582318	-0.5802740490586616	0.0	1.146164785050858	-0.9080227958606867	0.0	1.0879981421812683	-1.0596594675717892	0.0	1.1294814290901747	-1.0656032775430844	0.0	1.104660916243235	-1.0510703220542548	0.0	0.9730706487322972	-1.0152320193848692	0.0	1.1123266568040755	-0.13188692658748344	0.0	1.2434892057206275	-0.03565056276191627	0.0	1.2325397056254417	-0.01619263993776097	0.0	1.0752769182856754	-0.1489359348736004	0.0	0.9231109590040165	-0.30413546947481873	0.0	1.0267887857588183	-0.532740067171104	0.0	1.1225936479773453	-0.18412761876819236	0.0	0.9931718393984419	-0.3704661365503989	0.0	1.1040009998430367	-0.49618358381849614	0.0
194	6.491828793774319	1.031947786461175	-0.5885966191582114	0.0	1.0041008030259158	-0.592197000595121	0.0	1.2061937188198333	-0.9280287328327004	0.0	1.087351441752311	-1.0869887775626277	0.0	1.1767501680047463	-1.1149956324102157	0.0	1.15688092789447	-1.1316620773033192	0.0	1.0171832981403246	-1.0864265463646416	0.0	1.066356363399123	-0.5895503866916039	0.0	1.1494560609692488	-0.9131032213237856	0.0	1.0840748344788138	-1.0586160377604856	0.0	1.097291106202542	-1.0599939174652275	0.0	1.0712929851233093	-1.0405636572702135	0.0	0.9591101463044012	-1.0021537652149477	0.0	1.1153777687993935	-0.13879719728641196	0.0	1.2448792515651737	-0.03627386666726405	0.0	1.2332800929777539	-0.023894430819852385	0.0	1.0775622525065824	-0.16224191989195427	0.0	0.9248218161184376	-0.3185904661521699	0.0	1.0277679757064058	-0.5445201591949745	0.0	1.124227930210001	-0.19386260808696876	0.0	0.9951317304482872	-0.37703409420764955	0.0	1.1035063656569581	-0.5063095065093669	0.0
195	6.525291828793774	1.0284017230300926	-0.5988962289613183	0.0	1.0024284373331729	-0.6029106591757964	0.0	1.214418211197319	-0.9324585838595949	0.0	1.0893132376515053	-1.086347769927159	0.0	1.1767501586143903	-1.1149956927677411	0.0	1.156880926539898	-1.131662077878574	0.0	1.0171437509113275	-1.0864686941684527	0.0	1.0641552265951175	-0.598650229761845	0.0	1.1526467251596868	-0.9172859258851113	0.0	1.0786924878749187	-1.0559148963826588	0.0	1.0627539223351057	-1.0540885601127827	0.0	1.0364923519877147	-1.0295323640009557	0.0	0.94502513232274	-0.9891255728682431	0.0	1.1184887050722303	-0.14527093117850945	0.0	1.245184297717777	-0.03693380624395741	0.0	1.233583955992652	-0.03263165698269618	0.0	1.0795390820564514	-0.17445650331971768	0.0	0.9260760606033162	-0.33198757767712034	0.0	1.0286665581743808	-0.5553808845301582	0.0	1.1253470989640746	-0.20314924059285897	0.0	0.9964695153095297	-0.383796285231787	0.0	1.1017252040337635	-0.5166433317831802	0.0
196	6.558754863813229	1.0249624491451328	-0.6082422042153665	0.0	1.0010797126295876	-0.6131095794427434	0.0	1.2223894141791776	-0.9362215585597905	0.0	1.0909081139607004	-1.0851006928157165	0.0	1.17675003219239	-1.1149957819257776	0.0	1.1568808793551266	-1.1316620998752902	0.0	1.0171270807653303	-1.0864841253853144	0.0	1.0622678783719361	-0.6069667255659397	0.0	1.1559540433586315	-0.9204345548611019	0.0	1.0672836487393182	-1.0494444334948014	0.0	1.0275729206242799	-1.0482152804138016	0.0	1.001582753575746	-1.0184575216044085	0.0	0.93100521020616	-0.9763785546314027	0.0	1.1213233314734032	-0.15143130092654608	0.0	1.2445751062250499	-0.03737698233581519	0.0	1.2333640480748338	-0.04174489741019006	0.0	1.081121375393541	-0.18548995832465398	0.0	0.9268259540938715	-0.3441889449430656	0.0	1.0292526640216875	-0.5654491275850666	0.0	1.1260325734097043	-0.21189832957364566	0.0	0.9975802656230469	-0.390662288526408	0.0	1.0990896242657926	-0.5271198665835004	0.0
197	6.5922178988326845	1.0220046253224693	-0.6159770573368388	0.0	1.0001806298758227	-0.6221388132032782	0.0	1.2297666725943006	-0.9391757471138635	0.0	1.0920749394351352	-1.0834219108613834	0.0	1.176749704910432	-1.1149958825784212	0.0	1.1568807519905338	-1.1316621593798146	0.0	1.0171244108450004	-1.0864841040199127	0.0	1.0611443134845457	-0.613984099843091	0.0	1.158969162830775	-0.92253697802935	0.0	1.0454466118331491	-1.0372633631107406	0.0	0.9932493963523314	-1.0427235915393336	0.0	0.9677552115820856	-1.0077682657752831	0.0	0.9173070975474896	-0.9642772972440901	0.0	1.1235081057470988	-0.15738408004944388	0.0	1.2434142357499018	-0.037357546970654014	0.0	1.2325946030179327	-0.05059412719919245	0.0	1.0822349307495216	-0.19546092707696186	0.0	0.9270780562718122	-0.35509497972741333	0.0	1.0292698911338802	-0.5747602574955819	0.0	1.1264929807176391	-0.2199453847508532	0.0	0.9984563409032804	-0.39741620200508065	0.0	1.0962232766021653	-0.5370672038605202	0.0
198	6.62568093385214	1.019661652648206	-0.6217743110023674	0.0	0.9997792841442613	-0.6294425683888529	0.0	1.2361438748137177	-0.9413582337641498	0.0	1.092710222733812	-1.08153562552345	0.0	1.1767491049748708	-1.1149959452854465	0.0	1.156880513643144	-1.1316622708463855	0.0	1.0171285351338097	-1.086477253320577	0.0	1.0608423094852566	-0.6193967139718868	0.0	1.1611587136744552	-0.9236713384828358	0.0	1.0122807498938204	-1.0196041636102846	0.0	0.9613469149414208	-1.0380285783224297	0.0	0.9363828166033651	-0.9979224047480654	0.0	0.9043709670540344	-0.9533695866281294	0.0	1.124867706993483	-0.16306495107764532	0.0	1.241989459858704	-0.036889990767774904	0.0	1.2314157826554955	-0.05873488937617572	0.0	1.0828721879123777	-0.20440581871131436	0.0	0.9268308074838408	-0.36456847421435223	0.0	1.0286272001719587	-0.5831073150096041	0.0	1.1267880190435187	-0.22704253821924356	0.0	0.9983579832134757	-0.4035779478954484	0.0	1.0937232734706135	-0.5455968502287915	0.0
199	6.659143968871595	1.0178058774342276	-0.6256967394945333	0.0	0.9998197550101356	-0.634703030551535	0.0	1.2411735004287903	-0.9428989401001717	0.0	1.0927455048872645	-1.0797227226576793	0.0	1.1767482366784638	-1.1149958750805276	0.0	1.1568801622354528	-1.1316624353280598	0.0	1.0171350247760675	-1.0864687991312258	0.0	1.0609184698209377	-0.6231764771978683	0.0	1.1624863935811385	-0.924039067101736	0.0	0.9729750000532259	-0.9999836325713307	0.0	0.9335986105134135	-1.0345819494697979	0.0	0.9091286208520372	-0.9894165034287419	0.0	0.8928638543632266	-0.9443060886324302	0.0	1.1254420368493872	-0.1681683439392403	0.0	1.240461285224978	-0.036165239390714754	0.0	1.2300840933435861	-0.06587160112610843	0.0	1.083113578825483	-0.21209420641201873	0.0	0.9260879125131036	-0.3724328144517756	0.0	1.0275101128275916	-0.5901616020226875	0.0	1.1267521097130146	-0.2328912435886346	0.0	0.9962369034635643	-0.4086099756793921	0.0	1.0919322375661087	-0.5521672053759072	0.0
